<svg width="140" height="19" viewBox="0 0 140 19" fill="none" xmlns="http://www.w3.org/2000/svg">
<path d="M9.81665 13.2904C9.81665 14.7468 8.80722 15.5613 7.0912 15.5613H3.53298V10.9208H7.01549C8.73151 10.9208 9.81665 11.8094 9.81665 13.2904ZM9.38764 6.1075C9.38764 7.51446 8.42869 8.25497 6.76314 8.25497H3.53298V3.93534H6.76314C8.42869 3.93534 9.38764 4.72521 9.38764 6.1075ZM13.4001 13.71C13.4001 11.686 11.9869 9.88409 9.99329 9.53852C11.7093 8.99548 12.9963 7.68725 12.9963 5.58914C12.9963 3.02204 10.9523 1.14609 7.26786 1.14609H0V18.3752H7.59592C11.2551 18.3752 13.4001 16.4499 13.4001 13.71ZM28.9599 11.5379C28.9599 7.21826 25.8054 4.47837 21.7677 4.47837C17.73 4.47837 14.5756 7.21826 14.5756 11.5379C14.5756 15.8328 17.6291 18.5974 21.6668 18.5974C25.7297 18.5974 28.9599 15.8328 28.9599 11.5379ZM18.159 11.5379C18.159 8.79801 19.8498 7.48978 21.7173 7.48978C23.5847 7.48978 25.326 8.79801 25.326 11.5379C25.326 14.2531 23.5342 15.586 21.6668 15.586C19.7741 15.586 18.159 14.2531 18.159 11.5379ZM44.2958 11.5379C44.2958 7.21826 41.1413 4.47837 37.1036 4.47837C33.066 4.47837 29.9115 7.21826 29.9115 11.5379C29.9115 15.8328 32.965 18.5974 37.0027 18.5974C41.0656 18.5974 44.2958 15.8328 44.2958 11.5379ZM33.4949 11.5379C33.4949 8.79801 35.1857 7.48978 37.0532 7.48978C38.9206 7.48978 40.6619 8.79801 40.6619 11.5379C40.6619 14.2531 38.8701 15.586 37.0027 15.586C35.11 15.586 33.4949 14.2531 33.4949 11.5379ZM46.1298 18.3752H49.6628V12.5499L54.4071 18.3752H59L52.792 11.5626L58.9495 4.70053H54.3567L49.6628 10.5012V0.109375H46.1298V18.3752Z" fill="#0C572C"/>
<path d="M59 18.3752H62.5089V7.16889L67.2208 18.3752H69.8775L74.5644 7.16889V18.3752H78.0732V1.14609H74.1132L68.5491 13.9569L62.9851 1.14609H59L59 18.3752ZM79.8883 11.4885C79.8883 15.7588 82.6954 18.5974 86.2043 18.5974C88.4099 18.5974 89.9889 17.5607 90.816 16.3759V18.3752H94.3499V4.70053H90.816V6.65054C89.9889 5.51509 88.46 4.47837 86.2294 4.47837C82.6954 4.47837 79.8883 7.21826 79.8883 11.4885ZM90.816 11.5379C90.816 14.1297 89.0615 15.5613 87.1316 15.5613C85.2519 15.5613 83.4724 14.0803 83.4724 11.4885C83.4724 8.89674 85.2519 7.51446 87.1316 7.51446C89.0615 7.51446 90.816 8.94611 90.816 11.5379ZM100.533 11.5626C100.533 8.92143 101.786 8.13155 103.867 8.13155H104.794V4.50306C102.864 4.50306 101.41 5.41635 100.533 6.82332V4.70053H97.0244V18.3752H100.533V11.5626ZM106.405 18.3752H109.914V12.5499L114.626 18.3752H119.188L113.022 11.5626L119.138 4.70053H114.576L109.914 10.5012V0.109375H106.405V18.3752ZM121.97 7.36636L124.677 1.14609H120.992L119.564 7.36636H121.97ZM125.538 11.4885C125.538 15.7588 128.346 18.5974 131.879 18.5974C134.06 18.5974 135.614 17.6101 136.441 16.3512V18.3752H140V0.109375H136.441V6.60117C135.489 5.31762 133.734 4.47837 131.905 4.47837C128.346 4.47837 125.538 7.21826 125.538 11.4885ZM136.466 11.5379C136.466 14.1297 134.712 15.5613 132.782 15.5613C130.902 15.5613 129.123 14.0803 129.123 11.4885C129.123 8.89674 130.902 7.51446 132.782 7.51446C134.712 7.51446 136.466 8.94611 136.466 11.5379Z" fill="#0FC662"/>
</svg>
