<svg width="31" height="31" viewBox="0 0 31 31" fill="none" xmlns="http://www.w3.org/2000/svg">
<path d="M0.751953 1.68555C0.751953 1.34574 0.886941 1.01985 1.12722 0.779566C1.3675 0.539285 1.69339 0.404297 2.0332 0.404297H2.98645C4.60937 0.404297 5.58312 1.49592 6.13833 2.51067C6.50904 3.18717 6.77724 3.9713 6.98737 4.68196C7.0442 4.67748 7.10119 4.6752 7.1582 4.67513H28.509C29.9269 4.67513 30.9519 6.03155 30.5624 7.39651L27.4395 18.3452C27.1595 19.3273 26.5672 20.1913 25.7522 20.8066C24.9372 21.4219 23.9439 21.7548 22.9227 21.755H12.7615C11.7323 21.7551 10.7314 21.4171 9.91293 20.793C9.09442 20.169 8.50351 19.2934 8.23104 18.3008L6.9327 13.5653L4.7802 6.3083L4.77849 6.29463C4.51199 5.32601 4.26258 4.41888 3.89016 3.74238C3.53312 3.08467 3.24612 2.9668 2.98816 2.9668H2.0332C1.69339 2.9668 1.3675 2.83181 1.12722 2.59153C0.886941 2.35125 0.751953 2.02536 0.751953 1.68555ZM11.8561 30.3001C12.7623 30.3001 13.6313 29.9402 14.2721 29.2994C14.9128 28.6587 15.2728 27.7896 15.2728 26.8835C15.2728 25.9773 14.9128 25.1083 14.2721 24.4675C13.6313 23.8268 12.7623 23.4668 11.8561 23.4668C10.95 23.4668 10.0809 23.8268 9.44017 24.4675C8.79942 25.1083 8.43945 25.9773 8.43945 26.8835C8.43945 27.7896 8.79942 28.6587 9.44017 29.2994C10.0809 29.9402 10.95 30.3001 11.8561 30.3001ZM23.8145 30.3001C24.7206 30.3001 25.5897 29.9402 26.2304 29.2994C26.8711 28.6587 27.2311 27.7896 27.2311 26.8835C27.2311 25.9773 26.8711 25.1083 26.2304 24.4675C25.5897 23.8268 24.7206 23.4668 23.8145 23.4668C22.9083 23.4668 22.0393 23.8268 21.3985 24.4675C20.7578 25.1083 20.3978 25.9773 20.3978 26.8835C20.3978 27.7896 20.7578 28.6587 21.3985 29.2994C22.0393 29.9402 22.9083 30.3001 23.8145 30.3001Z" fill="#128848"/>
</svg>
