<svg width="24" height="25" viewBox="0 0 24 25" fill="none" xmlns="http://www.w3.org/2000/svg">
<path d="M12 3.70703H8C5.23858 3.70703 3 5.94561 3 8.70703V16.707C3 19.4684 5.23858 21.707 8 21.707H16C18.7614 21.707 21 19.4684 21 16.707V8.70703C21 5.94561 18.7614 3.70703 16 3.70703H12Z" stroke="#128848" stroke-width="2" stroke-linecap="round" stroke-linejoin="round"/>
<path d="M12 8.70703C14.2091 8.70703 16 10.4979 16 12.707C16 14.9162 14.2091 16.707 12 16.707C9.79086 16.707 8 14.9161 8 12.707C8 10.4979 9.79086 8.70703 12 8.70703Z" stroke="#128848" stroke-width="2" stroke-linecap="round" stroke-linejoin="round"/>
<path d="M17 9.20703C17.8284 9.20703 18.5 8.53546 18.5 7.70703C18.5 6.8786 17.8284 6.20703 17 6.20703C16.1716 6.20703 15.5 6.8786 15.5 7.70703C15.5 8.53546 16.1716 9.20703 17 9.20703Z" fill="#128848"/>
</svg>
