<svg width="24" height="25" viewBox="0 0 24 25" fill="none" xmlns="http://www.w3.org/2000/svg">
<path d="M6.93945 5.70608C6.93919 6.23651 6.72822 6.74511 6.35296 7.12C5.9777 7.49488 5.46889 7.70534 4.93845 7.70508C4.40802 7.70481 3.89942 7.49385 3.52453 7.11858C3.14965 6.74332 2.93919 6.23451 2.93945 5.70408C2.93972 5.17365 3.15069 4.66504 3.52595 4.29016C3.90121 3.91527 4.41002 3.70481 4.94045 3.70508C5.47089 3.70534 5.97949 3.91631 6.35437 4.29157C6.72926 4.66683 6.93972 5.17565 6.93945 5.70608ZM6.99945 9.18608H2.99945V21.7061H6.99945V9.18608ZM13.3195 9.18608H9.33945V21.7061H13.2795V15.1361C13.2795 11.4761 18.0495 11.1361 18.0495 15.1361V21.7061H21.9995V13.7761C21.9995 7.60608 14.9395 7.83608 13.2795 10.8661L13.3195 9.18608Z" fill="#128848"/>
</svg>
