<svg width="34" height="34" viewBox="0 0 34 34" fill="none" xmlns="http://www.w3.org/2000/svg">
<path d="M28.6218 26.3885C27.1131 24.023 23.7917 21.4879 17.0023 21.4879C10.2129 21.4879 6.89369 24.0209 5.38281 26.3885C6.77486 28.0866 8.54251 29.4574 10.5542 30.3989C12.566 31.3405 14.77 31.8285 17.0023 31.8267C19.2346 31.8285 21.4387 31.3405 23.4504 30.3989C25.4621 29.4574 27.2298 28.0866 28.6218 26.3885Z" fill="#128848"/>
<path fill-rule="evenodd" clip-rule="evenodd" d="M17.002 19.4202C18.6927 19.4202 20.3142 18.7667 21.5098 17.6033C22.7053 16.44 23.377 14.8622 23.377 13.217C23.377 11.5718 22.7053 9.99398 21.5098 8.83065C20.3142 7.66732 18.6927 7.01377 17.002 7.01377C15.3112 7.01377 13.6897 7.66732 12.4941 8.83065C11.2986 9.99398 10.627 11.5718 10.627 13.217C10.627 14.8622 11.2986 16.44 12.4941 17.6033C13.6897 18.7667 15.3112 19.4202 17.002 19.4202Z" fill="#128848"/>
<path fill-rule="evenodd" clip-rule="evenodd" d="M17.002 2.87829C13.0569 2.87829 9.27334 4.40324 6.48374 7.11767C3.69414 9.83211 2.12695 13.5137 2.12695 17.3525C2.12695 21.1913 3.69414 24.8728 6.48374 27.5873C9.27334 30.3017 13.0572 31.8267 17.0023 31.8267C20.9474 31.8267 24.7306 30.3017 27.5202 27.5873C30.3098 24.8728 31.877 21.1913 31.877 17.3525C31.877 13.5137 30.3098 9.83211 27.5202 7.11767C24.7306 4.40324 20.947 2.87829 17.002 2.87829ZM0.00195312 17.3525C0.00195313 12.9653 1.79302 8.75777 4.98114 5.65556C8.16926 2.55335 12.4933 0.810547 17.002 0.810547C21.5106 0.810547 25.8347 2.55335 29.0228 5.65556C32.2109 8.75777 34.002 12.9653 34.002 17.3525C34.002 21.7397 32.2109 25.9472 29.0228 29.0494C25.8347 32.1516 21.5106 33.8944 17.002 33.8944C12.4933 33.8944 8.16926 32.1516 4.98114 29.0494C1.79302 25.9472 0.00195313 21.7397 0.00195312 17.3525Z" fill="#128848"/>
</svg>
